<svg xmlns="http://www.w3.org/2000/svg" viewBox="0 0 117.2 80.4"><style>.st1{display:inline}.st2{fill:#fff}</style><g id="Calque_1_-_copie"><path class="st2" d="M55.9.5L28.2 17.6H3.8c-2.1 0-3.8 1.7-3.8 3.8v36.3c0 2.1 1.7 3.8 3.8 3.8h24.4L56 78.6c1.7 1.1 3.8.2 3.8-3.8V4.3c-.1-4.1-2-5-3.9-3.8zM75.8 55.5c7.7-7.6 7.7-22.8 0-31.2-5.1-5.3-10 .7-7.5 3.5 6.7 7.2 6.7 17.6 0 24.4-2.8 2.9 2.4 8.9 7.5 3.3zm26.7 20.4c19.6-20 19.6-53.4 0-74.2-4.6-4.7-10.2 1.1-5.8 7.2 15.9 17.4 15.6 43 0 60.1-7.3 6.8 0 14.3 5.8 6.9zm-13.1-9.5c13.7-16.8 13.7-36.3.1-52.1-6.4-7.3-12.2.4-6.4 6 10.4 10.9 10.4 28.4 0 39.5-5.6 6.1-.1 12.9 6.3 6.6z"/></g></svg>